<svg xmlns="http://www.w3.org/2000/svg" version="1.1" xmlns:xlink="http://www.w3.org/1999/xlink" xmlns:svgjs="http://svgjs.dev/svgjs" width="1000" height="1000" viewBox="0 0 1000 1000"><rect width="1000" height="1000" fill="#000000"></rect><g transform="matrix(0.7,0,0,0.7,149.57575866921064,454.9304172350699)"><svg viewBox="0 0 396 51" data-background-color="#ffffff" preserveAspectRatio="xMidYMid meet" height="128" width="1000" xmlns="http://www.w3.org/2000/svg" xmlns:xlink="http://www.w3.org/1999/xlink"><g id="tight-bounds" transform="matrix(1,0,0,1,0.24000061858203026,0.15344596087473406)"><svg viewBox="0 0 395.52 50.69310819358026" height="50.69310819358026" width="395.52"><g><svg viewBox="0 0 656.1207879858157 84.09385642552107" height="50.69310819358026" width="395.52"><g transform="matrix(1,0,0,1,258.62318798581583,0)"><svg viewBox="0 0 397.4975999999999 84.09385642552107" height="84.09385642552107" width="397.4975999999999"><g id="textblocktransform"><svg viewBox="0 0 397.4975999999999 84.09385642552107" height="84.09385642552107" width="397.4975999999999" id="textblock"><g><rect width="397.4975999999999" height="4.954414392981663" x="0" y="60.774893799048066" fill="#ffffff" opacity="1" stroke-width="0" stroke="transparent" fill-opacity="1" class="rect-o-0" data-fill-palette-color="primary" rx="1%" id="o-0" data-palette-color="#233565"></rect></g><g transform="matrix(1,0,0,1,0.9887999999999693,0)"><svg viewBox="0 0 395.52 54.93854176543093" height="54.93854176543093" width="395.52"><g transform="matrix(1,0,0,1,0,0)"><svg width="395.52" viewBox="4.849999904632568 -36.22999954223633 263.6600036621094 36.630001068115234" height="54.93854176543093" data-palette-color="#233565"><path d="M15.43-13.4L9.68-13.4 9.68 0 4.85 0 4.85-35.83 15.43-35.83Q18.82-35.83 21.34-35.04 23.85-34.25 25.5-32.8 27.15-31.35 27.96-29.3 28.78-27.25 28.78-24.73L28.78-24.73Q28.78-22.23 27.9-20.15 27.03-18.07 25.34-16.57 23.65-15.08 21.15-14.24 18.65-13.4 15.43-13.4L15.43-13.4ZM9.68-32L9.68-17.25 15.43-17.25Q17.5-17.25 19.09-17.8 20.68-18.35 21.75-19.34 22.83-20.33 23.38-21.7 23.93-23.08 23.93-24.73L23.93-24.73Q23.93-28.15 21.81-30.08 19.7-32 15.43-32L15.43-32 9.68-32ZM63.95-35.83L63.95 0 59.07 0 59.07-16.3 39.77-16.3 39.77 0 34.9 0 34.9-35.83 39.77-35.83 39.77-19.85 59.07-19.85 59.07-35.83 63.95-35.83ZM99.64-35.83L86.5-14.25 86.5 0 81.67 0 81.67-14.25 68.55-35.83 72.8-35.83Q73.44-35.83 73.82-35.5 74.19-35.18 74.47-34.7L74.47-34.7 82.67-20.78Q83.17-19.9 83.51-19.13 83.84-18.35 84.12-17.6L84.12-17.6Q84.39-18.38 84.72-19.15 85.05-19.93 85.55-20.78L85.55-20.78 93.72-34.7Q93.94-35.1 94.33-35.46 94.72-35.83 95.34-35.83L95.34-35.83 99.64-35.83ZM123.67-32.52L122.49-30.23Q122.27-29.85 122.02-29.66 121.77-29.48 121.37-29.48L121.37-29.48Q120.94-29.48 120.38-29.9 119.82-30.33 118.96-30.84 118.09-31.35 116.88-31.78 115.67-32.2 113.94-32.2L113.94-32.2Q112.32-32.2 111.07-31.76 109.82-31.33 108.98-30.58 108.14-29.83 107.72-28.81 107.29-27.8 107.29-26.63L107.29-26.63Q107.29-25.13 108.03-24.14 108.77-23.15 109.98-22.45 111.19-21.75 112.73-21.24 114.27-20.73 115.88-20.18 117.49-19.63 119.03-18.94 120.57-18.25 121.78-17.2 122.99-16.15 123.73-14.63 124.47-13.1 124.47-10.88L124.47-10.88Q124.47-8.53 123.67-6.46 122.87-4.4 121.33-2.88 119.79-1.35 117.56-0.48 115.32 0.4 112.47 0.4L112.47 0.4Q108.99 0.4 106.13-0.86 103.27-2.13 101.24-4.28L101.24-4.28 102.64-6.58Q102.84-6.85 103.13-7.04 103.42-7.23 103.77-7.23L103.77-7.23Q104.29-7.23 104.97-6.66 105.64-6.1 106.66-5.43 107.67-4.75 109.11-4.19 110.54-3.63 112.62-3.63L112.62-3.63Q114.34-3.63 115.69-4.1 117.04-4.58 117.98-5.44 118.92-6.3 119.42-7.5 119.92-8.7 119.92-10.18L119.92-10.18Q119.92-11.8 119.18-12.84 118.44-13.88 117.24-14.58 116.04-15.28 114.51-15.76 112.97-16.25 111.36-16.76 109.74-17.28 108.2-17.95 106.67-18.63 105.47-19.7 104.27-20.78 103.53-22.39 102.79-24 102.79-26.38L102.79-26.38Q102.79-28.28 103.53-30.05 104.27-31.83 105.67-33.2 107.07-34.58 109.13-35.4 111.19-36.23 113.87-36.23L113.87-36.23Q116.87-36.23 119.34-35.27 121.82-34.33 123.67-32.52L123.67-32.52ZM136.39-35.83L136.39 0 131.54 0 131.54-35.83 136.39-35.83ZM171.24-7.4L171.24-7.4Q171.64-7.4 171.96-7.08L171.96-7.08 173.86-5Q171.66-2.45 168.53-1.03 165.39 0.4 160.96 0.4L160.96 0.4Q157.09 0.4 153.94-0.94 150.79-2.27 148.56-4.69 146.34-7.1 145.11-10.48 143.89-13.85 143.89-17.9L143.89-17.9Q143.89-21.95 145.2-25.33 146.51-28.7 148.89-31.13 151.26-33.55 154.58-34.89 157.89-36.23 161.89-36.23L161.89-36.23Q165.84-36.23 168.7-35 171.56-33.77 173.79-31.68L173.79-31.68 172.21-29.45Q172.04-29.2 171.81-29.04 171.59-28.88 171.16-28.88L171.16-28.88Q170.84-28.88 170.48-29.11 170.11-29.35 169.61-29.7 169.11-30.05 168.44-30.45 167.76-30.85 166.84-31.2 165.91-31.55 164.69-31.79 163.46-32.02 161.86-32.02L161.86-32.02Q158.99-32.02 156.6-31.04 154.21-30.05 152.49-28.23 150.76-26.4 149.8-23.78 148.84-21.15 148.84-17.9L148.84-17.9Q148.84-14.55 149.8-11.93 150.76-9.3 152.43-7.49 154.09-5.68 156.36-4.73 158.64-3.78 161.26-3.78L161.26-3.78Q162.86-3.78 164.14-3.96 165.41-4.15 166.5-4.55 167.59-4.95 168.53-5.56 169.46-6.18 170.41-7.03L170.41-7.03Q170.84-7.4 171.24-7.4ZM195.39-35.83L209.71 0 205.96 0Q205.31 0 204.91-0.33 204.51-0.65 204.31-1.15L204.31-1.15 200.96-9.8 184.89-9.8 181.54-1.15Q181.36-0.7 180.94-0.35 180.51 0 179.89 0L179.89 0 176.14 0 190.46-35.83 195.39-35.83ZM191.86-27.85L186.24-13.3 199.61-13.3 193.99-27.88Q193.44-29.23 192.91-31.25L192.91-31.25Q192.64-30.23 192.37-29.36 192.11-28.5 191.86-27.85L191.86-27.85ZM223.23-14.95L219.56-14.95 219.56 0 214.73 0 214.73-35.83 224.86-35.83Q228.26-35.83 230.73-35.14 233.21-34.45 234.82-33.15 236.43-31.85 237.21-30.01 237.98-28.18 237.98-25.9L237.98-25.9Q237.98-24 237.38-22.35 236.78-20.7 235.65-19.39 234.51-18.07 232.87-17.15 231.23-16.23 229.16-15.75L229.16-15.75Q230.06-15.23 230.76-14.23L230.76-14.23 241.21 0 236.91 0Q235.58 0 234.96-1.03L234.96-1.03 225.66-13.83Q225.23-14.43 224.73-14.69 224.23-14.95 223.23-14.95L223.23-14.95ZM219.56-32L219.56-18.48 224.63-18.48Q226.76-18.48 228.37-18.99 229.98-19.5 231.07-20.44 232.16-21.38 232.71-22.68 233.26-23.98 233.26-25.55L233.26-25.55Q233.26-28.75 231.15-30.38 229.03-32 224.86-32L224.86-32 219.56-32ZM246.43-35.83L268.51-35.83 268.51-31.88 251.31-31.88 251.31-19.98 265.23-19.98 265.23-16.18 251.31-16.18 251.31-3.95 268.51-3.95 268.51 0 246.43 0 246.43-35.83Z" opacity="1" transform="matrix(1,0,0,1,0,0)" fill="#ffffff" class="wordmark-text-0" data-fill-palette-color="primary" id="text-0"></path></svg></g></svg></g><g transform="matrix(1,0,0,1,0,71.56566022564688)"><svg viewBox="0 0 232.20979199999996 12.528196199874204" height="12.528196199874204" width="232.20979199999996"><g transform="matrix(1,0,0,1,0,0)"><svg width="232.20979199999996" viewBox="2.3499999046325684 -38 715.3800048828125 38.599998474121094" height="12.528196199874204" data-palette-color="#233565"><path d="M9.4 0.2L9.4 0.2Q7.3 0.2 6.53-0.58 5.75-1.35 5.75-3.25L5.75-3.25 5.75-23.75 2.35-23.75 2.35-25.6 3.1-25.6Q4.85-25.6 5.43-26.1 6-26.6 6.2-27.75L6.2-27.75 6.95-32.5 8.65-32.5 8.65-25.6 15.5-25.6 15.5-23.75 8.65-23.75 8.65-1.85 15.5-1.85 15.5-0.5Q15.05-0.35 14.3-0.23 13.55-0.1 12.7 0 11.85 0.1 10.98 0.15 10.1 0.2 9.4 0.2ZM19.3 0L19.3-1.75 23.2-1.75 23.2-23.2 19.3-23.7 19.3-25 26.05-26.1 26.05-21.35 26.25-21.35Q26.6-22.2 27.17-23.08 27.75-23.95 28.57-24.65 29.4-25.35 30.5-25.78 31.6-26.2 33-26.2L33-26.2Q34.85-26.2 35.92-25.38 37-24.55 37-22.95L37-22.95Q37-21.8 36.4-21.15 35.8-20.5 34.85-20.5L34.85-20.5Q33.75-20.5 33.12-21.08 32.5-21.65 32.5-22.6L32.5-22.6Q32.5-23.35 32.85-23.85 33.2-24.35 33.6-24.45L33.6-24.45 33.6-24.55Q33.2-24.6 32.95-24.6 32.7-24.6 32.4-24.6L32.4-24.6Q31.3-24.6 30.17-24.05 29.05-23.5 28.15-22.6 27.25-21.7 26.67-20.55 26.1-19.4 26.1-18.2L26.1-18.2 26.1-1.75 31.05-1.75 31.05 0 19.3 0ZM48.05 0.6L48.05 0.6Q44.4 0.6 42.32-1.28 40.25-3.15 40.25-6.3L40.25-6.3Q40.25-8.15 40.85-9.53 41.45-10.9 42.8-11.85 44.15-12.8 46.27-13.28 48.4-13.75 51.45-13.75L51.45-13.75 55.9-13.75 55.9-17.9Q55.9-21.1 54.25-22.78 52.6-24.45 49.45-24.45L49.45-24.45Q47.65-24.45 46.35-24.15 45.05-23.85 44.35-23.35L44.35-23.35 44.35-23.25Q44.9-23 45.32-22.48 45.75-21.95 45.75-21.1L45.75-21.1Q45.75-20.1 45.15-19.53 44.55-18.95 43.55-18.95L43.55-18.95Q42.55-18.95 41.95-19.53 41.35-20.1 41.35-21.2L41.35-21.2Q41.35-22.15 41.97-23.05 42.6-23.95 43.77-24.65 44.95-25.35 46.6-25.78 48.25-26.2 50.3-26.2L50.3-26.2Q54.25-26.2 56.52-24.15 58.8-22.1 58.8-18.3L58.8-18.3 58.8-1.6 62.65-1.6 62.65-0.3Q62.15 0.05 61.22 0.28 60.3 0.5 59.35 0.5L59.35 0.5Q56.05 0.5 56.05-2.8L56.05-2.8 56.05-4.1 55.85-4.1Q55.5-3.25 54.92-2.4 54.35-1.55 53.4-0.88 52.45-0.2 51.15 0.2 49.85 0.6 48.05 0.6ZM49.1-1.4L49.1-1.4Q52-1.4 53.95-2.95 55.9-4.5 55.9-7.15L55.9-7.15 55.9-12.25 51.85-12.25Q49.45-12.25 47.82-11.9 46.2-11.55 45.22-10.88 44.25-10.2 43.82-9.22 43.4-8.25 43.4-7L43.4-7 43.4-5.85Q43.4-3.8 44.9-2.6 46.4-1.4 49.1-1.4ZM66.59 0L66.59-1.75 70.49-1.75 70.49-23.2 66.59-23.7 66.59-25 73.34-26.1 73.34-21.6 73.54-21.6Q73.84-22.45 74.47-23.28 75.09-24.1 76.04-24.75 76.99-25.4 78.24-25.8 79.49-26.2 81.09-26.2L81.09-26.2Q85.64-26.2 87.67-23.8 89.69-21.4 89.69-16.55L89.69-16.55 89.69-1.75 93.59-1.75 93.59 0 82.89 0 82.89-1.75 86.79-1.75 86.79-16.25Q86.79-20.3 85.14-22.2 83.49-24.1 80.14-24.1L80.14-24.1Q78.84-24.1 77.64-23.75 76.44-23.4 75.49-22.68 74.54-21.95 73.97-20.88 73.39-19.8 73.39-18.35L73.39-18.35 73.39-1.75 77.29-1.75 77.29 0 66.59 0ZM107.44 0.6L107.44 0.6Q104.79 0.6 103.07-0.38 101.34-1.35 100.64-2.65L100.64-2.65 100.49-2.65 100.49 0 98.29 0 98.29-7.55 100.49-7.55 100.49-6.2Q100.49-3.85 102.19-2.55 103.89-1.25 106.99-1.25L106.99-1.25Q110.14-1.25 111.84-2.45 113.54-3.65 113.54-6.15L113.54-6.15Q113.54-8.3 112.27-9.5 110.99-10.7 108.49-11.25L108.49-11.25 105.84-11.8Q102.34-12.6 100.42-14.33 98.49-16.05 98.49-19.35L98.49-19.35Q98.49-22.65 100.82-24.43 103.14-26.2 106.89-26.2L106.89-26.2Q109.49-26.2 111.07-25.35 112.64-24.5 113.19-23.25L113.19-23.25 113.39-23.25 113.39-25.6 115.59-25.6 115.59-18.05 113.39-18.05 113.39-19.85Q113.39-22.1 111.82-23.23 110.24-24.35 107.24-24.35L107.24-24.35Q104.44-24.35 102.84-23.23 101.24-22.1 101.24-19.8L101.24-19.8Q101.24-17.6 102.57-16.43 103.89-15.25 106.29-14.7L106.29-14.7 108.84-14.15Q112.49-13.35 114.42-11.65 116.34-9.95 116.34-6.65L116.34-6.65Q116.34-3.45 113.99-1.43 111.64 0.6 107.44 0.6ZM121.44 0L121.44-1.75 125.34-1.75 125.34-23.75 121.44-23.75 121.44-25.6 125.34-25.6 125.34-30.6Q125.34-32.3 125.89-33.68 126.44-35.05 127.41-36 128.39-36.95 129.71-37.48 131.04-38 132.59-38L132.59-38Q135.04-38 136.34-37.05 137.64-36.1 137.64-34.6L137.64-34.6Q137.64-33.6 137.06-32.98 136.49-32.35 135.54-32.35L135.54-32.35Q134.64-32.35 134.09-32.9 133.54-33.45 133.54-34.3L133.54-34.3Q133.54-35.75 134.79-36.25L134.79-36.25 134.79-36.35Q134.39-36.45 133.89-36.5 133.39-36.55 132.84-36.55L132.84-36.55Q130.69-36.55 129.46-35.08 128.24-33.6 128.24-30.95L128.24-30.95 128.24-25.6 133.74-25.6 133.74-23.75 128.24-23.75 128.24-1.75 133.14-1.75 133.14 0 121.44 0ZM148.99-1.25L148.99-1.25Q150.99-1.25 152.49-1.95 153.99-2.65 155.01-3.88 156.04-5.1 156.54-6.83 157.04-8.55 157.04-10.65L157.04-10.65 157.04-14.95Q157.04-17.05 156.54-18.78 156.04-20.5 155.01-21.73 153.99-22.95 152.49-23.65 150.99-24.35 148.99-24.35L148.99-24.35Q146.99-24.35 145.49-23.65 143.99-22.95 142.96-21.73 141.94-20.5 141.44-18.78 140.94-17.05 140.94-14.95L140.94-14.95 140.94-10.65Q140.94-8.55 141.44-6.83 141.94-5.1 142.96-3.88 143.99-2.65 145.49-1.95 146.99-1.25 148.99-1.25ZM148.99 0.6L148.99 0.6Q146.39 0.6 144.31-0.3 142.24-1.2 140.76-2.93 139.29-4.65 138.49-7.15 137.69-9.65 137.69-12.8L137.69-12.8Q137.69-15.95 138.49-18.43 139.29-20.9 140.76-22.63 142.24-24.35 144.31-25.28 146.39-26.2 148.99-26.2L148.99-26.2Q151.59-26.2 153.66-25.28 155.74-24.35 157.21-22.63 158.69-20.9 159.49-18.43 160.29-15.95 160.29-12.8L160.29-12.8Q160.29-9.65 159.49-7.15 158.69-4.65 157.21-2.93 155.74-1.2 153.66-0.3 151.59 0.6 148.99 0.6ZM165.13 0L165.13-1.75 169.03-1.75 169.03-23.2 165.13-23.7 165.13-25 171.88-26.1 171.88-21.35 172.08-21.35Q172.43-22.2 173.01-23.08 173.58-23.95 174.41-24.65 175.23-25.35 176.33-25.78 177.43-26.2 178.83-26.2L178.83-26.2Q180.68-26.2 181.76-25.38 182.83-24.55 182.83-22.95L182.83-22.95Q182.83-21.8 182.23-21.15 181.63-20.5 180.68-20.5L180.68-20.5Q179.58-20.5 178.96-21.08 178.33-21.65 178.33-22.6L178.33-22.6Q178.33-23.35 178.68-23.85 179.03-24.35 179.43-24.45L179.43-24.45 179.43-24.55Q179.03-24.6 178.78-24.6 178.53-24.6 178.23-24.6L178.23-24.6Q177.13-24.6 176.01-24.05 174.88-23.5 173.98-22.6 173.08-21.7 172.51-20.55 171.93-19.4 171.93-18.2L171.93-18.2 171.93-1.75 176.88-1.75 176.88 0 165.13 0ZM185.83 0L185.83-1.75 189.73-1.75 189.73-23.2 185.83-23.7 185.83-25 192.58-26.1 192.58-21.6 192.78-21.6Q193.08-22.45 193.71-23.28 194.33-24.1 195.23-24.75 196.13-25.4 197.38-25.8 198.63-26.2 200.23-26.2L200.23-26.2Q206.58-26.2 208.13-20.85L208.13-20.85 208.28-20.85Q208.63-21.9 209.31-22.85 209.98-23.8 210.96-24.55 211.93-25.3 213.26-25.75 214.58-26.2 216.28-26.2L216.28-26.2Q220.78-26.2 222.81-23.78 224.83-21.35 224.83-16.5L224.83-16.5 224.83-1.75 228.73-1.75 228.73 0 218.03 0 218.03-1.75 221.93-1.75 221.93-16.25Q221.93-20.3 220.28-22.2 218.63-24.1 215.33-24.1L215.33-24.1Q214.03-24.1 212.86-23.75 211.68-23.4 210.76-22.68 209.83-21.95 209.28-20.85 208.73-19.75 208.73-18.3L208.73-18.3 208.73-1.75 212.63-1.75 212.63 0 201.93 0 201.93-1.75 205.83-1.75 205.83-16.25Q205.83-20.3 204.21-22.2 202.58-24.1 199.28-24.1L199.28-24.1Q197.98-24.1 196.78-23.75 195.58-23.4 194.66-22.68 193.73-21.95 193.18-20.85 192.63-19.75 192.63-18.3L192.63-18.3 192.63-1.75 196.53-1.75 196.53 0 185.83 0ZM240.68 0.6L240.68 0.6Q237.03 0.6 234.95-1.28 232.88-3.15 232.88-6.3L232.88-6.3Q232.88-8.15 233.48-9.53 234.08-10.9 235.43-11.85 236.78-12.8 238.9-13.28 241.03-13.75 244.08-13.75L244.08-13.75 248.53-13.75 248.53-17.9Q248.53-21.1 246.88-22.78 245.23-24.45 242.08-24.45L242.08-24.45Q240.28-24.45 238.98-24.15 237.68-23.85 236.98-23.35L236.98-23.35 236.98-23.25Q237.53-23 237.95-22.48 238.38-21.95 238.38-21.1L238.38-21.1Q238.38-20.1 237.78-19.53 237.18-18.95 236.18-18.95L236.18-18.95Q235.18-18.95 234.58-19.53 233.98-20.1 233.98-21.2L233.98-21.2Q233.98-22.15 234.6-23.05 235.23-23.95 236.4-24.65 237.58-25.35 239.23-25.78 240.88-26.2 242.93-26.2L242.93-26.2Q246.88-26.2 249.15-24.15 251.43-22.1 251.43-18.3L251.43-18.3 251.43-1.6 255.28-1.6 255.28-0.3Q254.78 0.05 253.85 0.28 252.93 0.5 251.98 0.5L251.98 0.5Q248.68 0.5 248.68-2.8L248.68-2.8 248.68-4.1 248.48-4.1Q248.13-3.25 247.55-2.4 246.98-1.55 246.03-0.88 245.08-0.2 243.78 0.2 242.48 0.6 240.68 0.6ZM241.73-1.4L241.73-1.4Q244.63-1.4 246.58-2.95 248.53-4.5 248.53-7.15L248.53-7.15 248.53-12.25 244.48-12.25Q242.08-12.25 240.45-11.9 238.83-11.55 237.85-10.88 236.88-10.2 236.45-9.22 236.03-8.25 236.03-7L236.03-7 236.03-5.85Q236.03-3.8 237.53-2.6 239.03-1.4 241.73-1.4ZM259.23 0L259.23-1.75 263.13-1.75 263.13-23.2 259.23-23.7 259.23-25 265.98-26.1 265.98-21.6 266.18-21.6Q266.48-22.45 267.1-23.28 267.73-24.1 268.68-24.75 269.63-25.4 270.88-25.8 272.13-26.2 273.73-26.2L273.73-26.2Q278.28-26.2 280.3-23.8 282.33-21.4 282.33-16.55L282.33-16.55 282.33-1.75 286.23-1.75 286.23 0 275.53 0 275.53-1.75 279.43-1.75 279.43-16.25Q279.43-20.3 277.78-22.2 276.13-24.1 272.78-24.1L272.78-24.1Q271.48-24.1 270.28-23.75 269.08-23.4 268.13-22.68 267.18-21.95 266.6-20.88 266.03-19.8 266.03-18.35L266.03-18.35 266.03-1.75 269.93-1.75 269.93 0 259.23 0ZM301.17 0.6L301.17 0.6Q296.27 0.6 293.45-2.8 290.62-6.2 290.62-12.8L290.62-12.8Q290.62-19.4 293.45-22.8 296.27-26.2 301.17-26.2L301.17-26.2Q304.32-26.2 306.27-24.83 308.22-23.45 309.02-21.6L309.02-21.6 309.22-21.6 309.22-35 305.32-35.5 305.32-36.8 312.12-37.9 312.12-2.4 316.02-1.9 316.02-0.6 309.22 0.5 309.22-4.05 309.02-4.05Q308.17-2.15 306.27-0.78 304.37 0.6 301.17 0.6ZM301.92-1.5L301.92-1.5Q303.32-1.5 304.62-1.9 305.92-2.3 306.95-3.05 307.97-3.8 308.6-4.85 309.22-5.9 309.22-7.25L309.22-7.25 309.22-18.35Q309.22-19.7 308.6-20.75 307.97-21.8 306.95-22.55 305.92-23.3 304.62-23.7 303.32-24.1 301.92-24.1L301.92-24.1Q298.02-24.1 295.9-21.53 293.77-18.95 293.77-14.55L293.77-14.55 293.77-11.05Q293.77-6.65 295.9-4.08 298.02-1.5 301.92-1.5ZM331.52-1.25L331.52-1.25Q333.52-1.25 335.02-1.95 336.52-2.65 337.55-3.88 338.57-5.1 339.07-6.83 339.57-8.55 339.57-10.65L339.57-10.65 339.57-14.95Q339.57-17.05 339.07-18.78 338.57-20.5 337.55-21.73 336.52-22.95 335.02-23.65 333.52-24.35 331.52-24.35L331.52-24.35Q329.52-24.35 328.02-23.65 326.52-22.95 325.5-21.73 324.47-20.5 323.97-18.78 323.47-17.05 323.47-14.95L323.47-14.95 323.47-10.65Q323.47-8.55 323.97-6.83 324.47-5.1 325.5-3.88 326.52-2.65 328.02-1.95 329.52-1.25 331.52-1.25ZM331.52 0.6L331.52 0.6Q328.92 0.6 326.85-0.3 324.77-1.2 323.3-2.93 321.82-4.65 321.02-7.15 320.22-9.65 320.22-12.8L320.22-12.8Q320.22-15.95 321.02-18.43 321.82-20.9 323.3-22.63 324.77-24.35 326.85-25.28 328.92-26.2 331.52-26.2L331.52-26.2Q334.12-26.2 336.2-25.28 338.27-24.35 339.75-22.63 341.22-20.9 342.02-18.43 342.82-15.95 342.82-12.8L342.82-12.8Q342.82-9.65 342.02-7.15 341.22-4.65 339.75-2.93 338.27-1.2 336.2-0.3 334.12 0.6 331.52 0.6ZM369.12 0.6L369.12 0.6Q366.47 0.6 364.74-0.38 363.02-1.35 362.32-2.65L362.32-2.65 362.17-2.65 362.17 0 359.97 0 359.97-7.55 362.17-7.55 362.17-6.2Q362.17-3.85 363.87-2.55 365.57-1.25 368.67-1.25L368.67-1.25Q371.82-1.25 373.52-2.45 375.22-3.65 375.22-6.15L375.22-6.15Q375.22-8.3 373.94-9.5 372.67-10.7 370.17-11.25L370.17-11.25 367.52-11.8Q364.02-12.6 362.09-14.33 360.17-16.05 360.17-19.35L360.17-19.35Q360.17-22.65 362.49-24.43 364.82-26.2 368.57-26.2L368.57-26.2Q371.17-26.2 372.74-25.35 374.32-24.5 374.87-23.25L374.87-23.25 375.07-23.25 375.07-25.6 377.27-25.6 377.27-18.05 375.07-18.05 375.07-19.85Q375.07-22.1 373.49-23.23 371.92-24.35 368.92-24.35L368.92-24.35Q366.12-24.35 364.52-23.23 362.92-22.1 362.92-19.8L362.92-19.8Q362.92-17.6 364.24-16.43 365.57-15.25 367.97-14.7L367.97-14.7 370.52-14.15Q374.17-13.35 376.09-11.65 378.02-9.95 378.02-6.65L378.02-6.65Q378.02-3.45 375.67-1.43 373.32 0.6 369.12 0.6ZM391.16 0.6L391.16 0.6Q387.51 0.6 385.44-1.28 383.36-3.15 383.36-6.3L383.36-6.3Q383.36-8.15 383.96-9.53 384.56-10.9 385.91-11.85 387.26-12.8 389.39-13.28 391.51-13.75 394.56-13.75L394.56-13.75 399.01-13.75 399.01-17.9Q399.01-21.1 397.36-22.78 395.71-24.45 392.56-24.45L392.56-24.45Q390.76-24.45 389.46-24.15 388.16-23.85 387.46-23.35L387.46-23.35 387.46-23.25Q388.01-23 388.44-22.48 388.86-21.95 388.86-21.1L388.86-21.1Q388.86-20.1 388.26-19.53 387.66-18.95 386.66-18.95L386.66-18.95Q385.66-18.95 385.06-19.53 384.46-20.1 384.46-21.2L384.46-21.2Q384.46-22.15 385.09-23.05 385.71-23.95 386.89-24.65 388.06-25.35 389.71-25.78 391.36-26.2 393.41-26.2L393.41-26.2Q397.36-26.2 399.64-24.15 401.91-22.1 401.91-18.3L401.91-18.3 401.91-1.6 405.76-1.6 405.76-0.3Q405.26 0.05 404.34 0.28 403.41 0.5 402.46 0.5L402.46 0.5Q399.16 0.5 399.16-2.8L399.16-2.8 399.16-4.1 398.96-4.1Q398.61-3.25 398.04-2.4 397.46-1.55 396.51-0.88 395.56-0.2 394.26 0.2 392.96 0.6 391.16 0.6ZM392.21-1.4L392.21-1.4Q395.11-1.4 397.06-2.95 399.01-4.5 399.01-7.15L399.01-7.15 399.01-12.25 394.96-12.25Q392.56-12.25 390.94-11.9 389.31-11.55 388.34-10.88 387.36-10.2 386.94-9.22 386.51-8.25 386.51-7L386.51-7 386.51-5.85Q386.51-3.8 388.01-2.6 389.51-1.4 392.21-1.4ZM421.06 0.6L421.06 0.6Q416.56 0.6 414.51-1.83 412.46-4.25 412.46-9.1L412.46-9.1 412.46-23.2 408.56-23.7 408.56-25 415.36-26.1 415.36-9.4Q415.36-5.35 417.04-3.43 418.71-1.5 422.06-1.5L422.06-1.5Q423.31-1.5 424.54-1.85 425.76-2.2 426.69-2.9 427.61-3.6 428.19-4.7 428.76-5.8 428.76-7.25L428.76-7.25 428.76-23.2 424.86-23.7 424.86-25 431.66-26.1 431.66-2.4 435.56-1.9 435.56-0.6 428.86 0.5 428.86-4 428.66-4Q428.36-3.15 427.74-2.33 427.11-1.5 426.16-0.85 425.21-0.2 423.94 0.2 422.66 0.6 421.06 0.6ZM450.51 0.6L450.51 0.6Q445.61 0.6 442.78-2.8 439.96-6.2 439.96-12.8L439.96-12.8Q439.96-19.4 442.78-22.8 445.61-26.2 450.51-26.2L450.51-26.2Q453.66-26.2 455.61-24.83 457.56-23.45 458.36-21.6L458.36-21.6 458.56-21.6 458.56-35 454.66-35.5 454.66-36.8 461.46-37.9 461.46-2.4 465.36-1.9 465.36-0.6 458.56 0.5 458.56-4.05 458.36-4.05Q457.51-2.15 455.61-0.78 453.71 0.6 450.51 0.6ZM451.26-1.5L451.26-1.5Q452.66-1.5 453.96-1.9 455.26-2.3 456.28-3.05 457.31-3.8 457.93-4.85 458.56-5.9 458.56-7.25L458.56-7.25 458.56-18.35Q458.56-19.7 457.93-20.75 457.31-21.8 456.28-22.55 455.26-23.3 453.96-23.7 452.66-24.1 451.26-24.1L451.26-24.1Q447.36-24.1 445.23-21.53 443.11-18.95 443.11-14.55L443.11-14.55 443.11-11.05Q443.11-6.65 445.23-4.08 447.36-1.5 451.26-1.5ZM480.86 0.6L480.86 0.6Q475.66 0.6 472.61-2.9 469.56-6.4 469.56-12.8L469.56-12.8Q469.56-15.85 470.38-18.35 471.21-20.85 472.71-22.58 474.21-24.3 476.26-25.25 478.31-26.2 480.76-26.2L480.76-26.2Q483.16-26.2 485.08-25.3 487.01-24.4 488.36-22.83 489.71-21.25 490.43-19.03 491.16-16.8 491.16-14.2L491.16-14.2 491.16-13.35 472.76-13.35 472.76-11.75Q472.76-6.9 475.11-4.3 477.46-1.7 481.26-1.7L481.26-1.7Q484.41-1.7 486.38-3.1 488.36-4.5 489.41-6.55L489.41-6.55 490.66-5.8Q490.16-4.6 489.31-3.45 488.46-2.3 487.23-1.4 486.01-0.5 484.43 0.05 482.86 0.6 480.86 0.6ZM472.76-15.4L472.76-15.05 488.11-15.05 488.11-15.35Q488.11-17.3 487.66-18.95 487.21-20.6 486.28-21.83 485.36-23.05 483.98-23.73 482.61-24.4 480.76-24.4L480.76-24.4Q478.91-24.4 477.43-23.75 475.96-23.1 474.91-21.9 473.86-20.7 473.31-19.05 472.76-17.4 472.76-15.4L472.76-15.4ZM519.05 0.6L519.05 0.6Q513.85 0.6 510.8-2.9 507.75-6.4 507.75-12.8L507.75-12.8Q507.75-15.85 508.58-18.35 509.4-20.85 510.9-22.58 512.4-24.3 514.45-25.25 516.5-26.2 518.95-26.2L518.95-26.2Q521.35-26.2 523.28-25.3 525.2-24.4 526.55-22.83 527.9-21.25 528.63-19.03 529.35-16.8 529.35-14.2L529.35-14.2 529.35-13.35 510.95-13.35 510.95-11.75Q510.95-6.9 513.3-4.3 515.65-1.7 519.45-1.7L519.45-1.7Q522.6-1.7 524.58-3.1 526.55-4.5 527.6-6.55L527.6-6.55 528.85-5.8Q528.35-4.6 527.5-3.45 526.65-2.3 525.43-1.4 524.2-0.5 522.63 0.05 521.05 0.6 519.05 0.6ZM510.95-15.4L510.95-15.05 526.3-15.05 526.3-15.35Q526.3-17.3 525.85-18.95 525.4-20.6 524.48-21.83 523.55-23.05 522.18-23.73 520.8-24.4 518.95-24.4L518.95-24.4Q517.1-24.4 515.63-23.75 514.15-23.1 513.1-21.9 512.05-20.7 511.5-19.05 510.95-17.4 510.95-15.4L510.95-15.4ZM534.1 0L534.1-1.75 538-1.75 538-23.2 534.1-23.7 534.1-25 540.85-26.1 540.85-21.6 541.05-21.6Q541.35-22.45 541.97-23.28 542.6-24.1 543.5-24.75 544.4-25.4 545.65-25.8 546.9-26.2 548.5-26.2L548.5-26.2Q554.85-26.2 556.4-20.85L556.4-20.85 556.55-20.85Q556.9-21.9 557.57-22.85 558.25-23.8 559.22-24.55 560.2-25.3 561.52-25.75 562.85-26.2 564.55-26.2L564.55-26.2Q569.05-26.2 571.07-23.78 573.1-21.35 573.1-16.5L573.1-16.5 573.1-1.75 577-1.75 577 0 566.3 0 566.3-1.75 570.2-1.75 570.2-16.25Q570.2-20.3 568.55-22.2 566.9-24.1 563.6-24.1L563.6-24.1Q562.3-24.1 561.12-23.75 559.95-23.4 559.02-22.68 558.1-21.95 557.55-20.85 557-19.75 557-18.3L557-18.3 557-1.75 560.9-1.75 560.9 0 550.2 0 550.2-1.75 554.1-1.75 554.1-16.25Q554.1-20.3 552.47-22.2 550.85-24.1 547.55-24.1L547.55-24.1Q546.25-24.1 545.05-23.75 543.85-23.4 542.92-22.68 542-21.95 541.45-20.85 540.9-19.75 540.9-18.3L540.9-18.3 540.9-1.75 544.8-1.75 544.8 0 534.1 0ZM604.09 0.6L604.09 0.6Q599.59 0.6 597.54-1.83 595.49-4.25 595.49-9.1L595.49-9.1 595.49-23.2 591.59-23.7 591.59-25 598.39-26.1 598.39-9.4Q598.39-5.35 600.07-3.43 601.74-1.5 605.09-1.5L605.09-1.5Q606.34-1.5 607.57-1.85 608.79-2.2 609.72-2.9 610.64-3.6 611.22-4.7 611.79-5.8 611.79-7.25L611.79-7.25 611.79-23.2 607.89-23.7 607.89-25 614.69-26.1 614.69-2.4 618.59-1.9 618.59-0.6 611.89 0.5 611.89-4 611.69-4Q611.39-3.15 610.77-2.33 610.14-1.5 609.19-0.85 608.24-0.2 606.97 0.2 605.69 0.6 604.09 0.6ZM622.59 0L622.59-1.75 626.49-1.75 626.49-23.2 622.59-23.7 622.59-25 629.34-26.1 629.34-21.6 629.54-21.6Q629.84-22.45 630.46-23.28 631.09-24.1 632.04-24.75 632.99-25.4 634.24-25.8 635.49-26.2 637.09-26.2L637.09-26.2Q641.64-26.2 643.66-23.8 645.69-21.4 645.69-16.55L645.69-16.55 645.69-1.75 649.59-1.75 649.59 0 638.89 0 638.89-1.75 642.79-1.75 642.79-16.25Q642.79-20.3 641.14-22.2 639.49-24.1 636.14-24.1L636.14-24.1Q634.84-24.1 633.64-23.75 632.44-23.4 631.49-22.68 630.54-21.95 629.96-20.88 629.39-19.8 629.39-18.35L629.39-18.35 629.39-1.75 633.29-1.75 633.29 0 622.59 0ZM658.94-32.4L658.94-32.4Q657.94-32.4 657.39-33.02 656.84-33.65 656.84-34.5L656.84-34.5 656.84-34.7Q656.84-35.55 657.39-36.18 657.94-36.8 658.94-36.8L658.94-36.8Q659.94-36.8 660.49-36.18 661.04-35.55 661.04-34.7L661.04-34.7 661.04-34.5Q661.04-33.65 660.49-33.02 659.94-32.4 658.94-32.4ZM653.59 0L653.59-1.75 657.49-1.75 657.49-23.2 653.59-23.7 653.59-25 660.39-26.1 660.39-1.75 664.29-1.75 664.29 0 653.59 0ZM676.33 0.6L676.33 0.6Q672.68 0.6 670.61-1.28 668.53-3.15 668.53-6.3L668.53-6.3Q668.53-8.15 669.13-9.53 669.73-10.9 671.08-11.85 672.43-12.8 674.56-13.28 676.68-13.75 679.73-13.75L679.73-13.75 684.18-13.75 684.18-17.9Q684.18-21.1 682.53-22.78 680.88-24.45 677.73-24.45L677.73-24.45Q675.93-24.45 674.63-24.15 673.33-23.85 672.63-23.35L672.63-23.35 672.63-23.25Q673.18-23 673.61-22.48 674.03-21.95 674.03-21.1L674.03-21.1Q674.03-20.1 673.43-19.53 672.83-18.95 671.83-18.95L671.83-18.95Q670.83-18.95 670.23-19.53 669.63-20.1 669.63-21.2L669.63-21.2Q669.63-22.15 670.26-23.05 670.88-23.95 672.06-24.65 673.23-25.35 674.88-25.78 676.53-26.2 678.58-26.2L678.58-26.2Q682.53-26.2 684.81-24.15 687.08-22.1 687.08-18.3L687.08-18.3 687.08-1.6 690.93-1.6 690.93-0.3Q690.43 0.05 689.51 0.28 688.58 0.5 687.63 0.5L687.63 0.5Q684.33 0.5 684.33-2.8L684.33-2.8 684.33-4.1 684.13-4.1Q683.78-3.25 683.21-2.4 682.63-1.55 681.68-0.88 680.73-0.2 679.43 0.2 678.13 0.6 676.33 0.6ZM677.38-1.4L677.38-1.4Q680.28-1.4 682.23-2.95 684.18-4.5 684.18-7.15L684.18-7.15 684.18-12.25 680.13-12.25Q677.73-12.25 676.11-11.9 674.48-11.55 673.51-10.88 672.53-10.2 672.11-9.22 671.68-8.25 671.68-7L671.68-7 671.68-5.85Q671.68-3.8 673.18-2.6 674.68-1.4 677.38-1.4ZM706.43-1.25L706.43-1.25Q708.43-1.25 709.93-1.95 711.43-2.65 712.46-3.88 713.48-5.1 713.98-6.83 714.48-8.55 714.48-10.65L714.48-10.65 714.48-14.95Q714.48-17.05 713.98-18.78 713.48-20.5 712.46-21.73 711.43-22.95 709.93-23.65 708.43-24.35 706.43-24.35L706.43-24.35Q704.43-24.35 702.93-23.65 701.43-22.95 700.41-21.73 699.38-20.5 698.88-18.78 698.38-17.05 698.38-14.95L698.38-14.95 698.38-10.65Q698.38-8.55 698.88-6.83 699.38-5.1 700.41-3.88 701.43-2.65 702.93-1.95 704.43-1.25 706.43-1.25ZM706.43 0.6L706.43 0.6Q703.83 0.6 701.76-0.3 699.68-1.2 698.21-2.93 696.73-4.65 695.93-7.15 695.13-9.65 695.13-12.8L695.13-12.8Q695.13-15.95 695.93-18.43 696.73-20.9 698.21-22.63 699.68-24.35 701.76-25.28 703.83-26.2 706.43-26.2L706.43-26.2Q709.03-26.2 711.11-25.28 713.18-24.35 714.66-22.63 716.13-20.9 716.93-18.43 717.73-15.95 717.73-12.8L717.73-12.8Q717.73-9.65 716.93-7.15 716.13-4.65 714.66-2.93 713.18-1.2 711.11-0.3 709.03 0.6 706.43 0.6Z" opacity="1" transform="matrix(1,0,0,1,0,0)" fill="#ffffff" class="slogan-text-1" data-fill-palette-color="secondary" id="text-1"></path></svg></g></svg></g></svg></g></svg></g><g transform="matrix(1,0,0,1,0,3.3456312156886554)"><svg viewBox="0 0 245.65351679999995 77.40259399414376" height="77.40259399414376" width="245.65351679999995"><g><svg xmlns="http://www.w3.org/2000/svg" xmlns:xlink="http://www.w3.org/1999/xlink" version="1.1" x="0" y="0" viewBox="10.825594902038574 38.09199905395508 80.66622924804688 25.41699981689453" enable-background="new 0 0 100 100" xml:space="preserve" height="77.40259399414376" width="245.65351679999995" class="icon-icon-0" data-fill-palette-color="accent" id="icon-0"><path d="M31.376 42.592c-7.333 0-11.834 2.75-11.834 4.625s1.584 3.625 9.667 3.625 24.5-10.25 41.25-10.25c17.083 0.002 17.083 8.583 17.083 8.583s-2.254-1.958-13.583-1.958c-16.917 0-32.667 9.125-43.874 9.125-11.209 0-14.108-5.008-14.108-8.925 0-3.375 4.399-9.325 15.232-9.325s12.667 6.583 12.667 6.583S38.709 42.592 31.376 42.592zM10.876 48.759c0 0-2.167 14.75 21.916 14.75 24.084 0 33.251-10.167 51.918-10.167 5.654 0.12 6.666 2.792 6.666 2.792s2.25-7.375-13.084-7.375c-15.332 0-33.308 9.917-47.832 9.917C15.935 58.676 10.876 48.759 10.876 48.759z" fill="#ffffff" data-fill-palette-color="accent"></path></svg></g></svg></g></svg></g><defs></defs></svg><rect width="395.52" height="50.69310819358026" fill="none" stroke="none" visibility="hidden"></rect></g></svg></g></svg>